# Blender v2.79 (sub 0) OBJ File: ''
# www.blender.org
mtllib sphere01.mtl
o Sphere
v 0.000000 0.951057 -0.309017
v 0.000000 0.809017 -0.587785
v 0.000000 0.587785 -0.809017
v 0.000000 -0.309017 -0.951056
v 0.000000 -0.587785 -0.809017
v 0.000000 -0.951057 -0.309017
v 0.000000 -1.000000 0.000000
v 0.181636 0.951057 -0.250000
v 0.345492 0.809017 -0.475528
v 0.475528 0.587785 -0.654508
v 0.559017 0.309017 -0.769421
v 0.587785 -0.000000 -0.809017
v 0.559017 -0.309017 -0.769421
v 0.475528 -0.587785 -0.654508
v 0.345492 -0.809017 -0.475528
v 0.181636 -0.951057 -0.250000
v 0.293893 0.951057 -0.095491
v 0.559017 0.809017 -0.181635
v 0.769421 0.587785 -0.250000
v 0.904509 0.309017 -0.293892
v 0.951057 -0.000000 -0.309017
v 0.904509 -0.309017 -0.293892
v 0.769421 -0.587785 -0.250000
v 0.559017 -0.809017 -0.181635
v 0.293893 -0.951057 -0.095491
v 0.293893 0.951057 0.095492
v 0.559017 0.809017 0.181636
v 0.769421 0.587785 0.250000
v 0.904509 0.309017 0.293893
v 0.951057 -0.000000 0.309017
v 0.904509 -0.309017 0.293893
v 0.769421 -0.587785 0.250000
v 0.559017 -0.809017 0.181636
v 0.293893 -0.951057 0.095492
v 0.181636 0.951057 0.250001
v 0.345492 0.809017 0.475529
v 0.475528 0.587785 0.654509
v 0.559017 0.309017 0.769421
v 0.587785 -0.000000 0.809017
v 0.559017 -0.309017 0.769421
v 0.475528 -0.587785 0.654509
v 0.345492 -0.809017 0.475529
v 0.181636 -0.951057 0.250000
v 0.000000 0.951057 0.309018
v 0.000000 0.809017 0.587786
v -0.000000 0.587785 0.809018
v 0.000000 0.309017 0.951057
v 0.000000 -0.000000 1.000001
v -0.000000 -0.309017 0.951057
v -0.000000 -0.587785 0.809018
v 0.000000 -0.809017 0.587786
v 0.000000 -0.951057 0.309017
v -0.000000 1.000000 0.000001
v -0.181636 0.951057 0.250001
v -0.345492 0.809017 0.475529
v -0.475529 0.587785 0.654509
v -0.559017 0.309017 0.769422
v -0.587785 -0.000000 0.809018
v -0.559017 -0.309017 0.769421
v -0.475529 -0.587785 0.654509
v -0.345492 -0.809017 0.475529
v -0.181636 -0.951057 0.250000
v -0.293893 0.951057 0.095492
v -0.559017 0.809017 0.181636
v -0.769421 0.587785 0.250000
v -0.904509 0.309017 0.293893
v -0.951057 -0.000000 0.309018
v -0.904509 -0.309017 0.293893
v -0.769421 -0.587785 0.250000
v -0.559017 -0.809017 0.181636
v -0.293893 -0.951057 0.095492
v -0.293893 0.951057 -0.095491
v -0.559017 0.809017 -0.181635
v -0.769421 0.587785 -0.250000
v -0.904509 0.309017 -0.293892
v -0.951057 -0.000000 -0.309017
v -0.904509 -0.309017 -0.293892
v -0.769421 -0.587785 -0.250000
v -0.559017 -0.809017 -0.181635
v -0.293893 -0.951057 -0.095491
v -0.181636 0.951057 -0.250000
v -0.345492 0.809017 -0.475528
v -0.475529 0.587785 -0.654509
v -0.559017 0.309017 -0.769421
v -0.587786 -0.000000 -0.809017
v -0.559017 -0.309017 -0.769421
v -0.475529 -0.587785 -0.654509
v -0.345492 -0.809017 -0.475528
v -0.181636 -0.951057 -0.250000
v -0.000000 0.309017 -0.951057
v -0.000000 -0.000000 -1.000000
v -0.000000 -0.809017 -0.587785
vn 0.2781 -0.4361 -0.8559
vn 0.2781 0.4361 -0.8559
vn 0.0508 0.9864 -0.1562
vn 0.2239 -0.6892 -0.6892
vn 0.3056 0.1490 -0.9404
vn 0.1459 0.8815 -0.4491
vn 0.1459 -0.8815 -0.4491
vn 0.3056 -0.1490 -0.9404
vn 0.2239 0.6892 -0.6892
vn 0.0508 -0.9864 -0.1562
vn 0.7280 0.4361 -0.5290
vn 0.1329 0.9864 -0.0966
vn 0.5862 -0.6892 -0.4259
vn 0.8000 0.1490 -0.5812
vn 0.3821 0.8815 -0.2776
vn 0.3821 -0.8815 -0.2776
vn 0.8000 -0.1490 -0.5812
vn 0.5862 0.6892 -0.4259
vn 0.1329 -0.9864 -0.0966
vn 0.7280 -0.4361 -0.5290
vn 0.1643 -0.9864 0.0000
vn 0.8999 -0.4361 0.0000
vn 0.8999 0.4361 0.0000
vn 0.1643 0.9864 0.0000
vn 0.7246 -0.6892 0.0000
vn 0.9888 0.1490 0.0000
vn 0.4722 0.8815 0.0000
vn 0.4722 -0.8815 0.0000
vn 0.9888 -0.1490 0.0000
vn 0.7246 0.6892 0.0000
vn 0.8000 -0.1490 0.5812
vn 0.5862 0.6892 0.4259
vn 0.1329 -0.9864 0.0966
vn 0.7280 -0.4361 0.5290
vn 0.7280 0.4361 0.5290
vn 0.1329 0.9864 0.0966
vn 0.5862 -0.6892 0.4259
vn 0.8000 0.1490 0.5812
vn 0.3821 0.8815 0.2776
vn 0.3821 -0.8815 0.2776
vn 0.1459 0.8815 0.4491
vn 0.1459 -0.8815 0.4491
vn 0.3056 -0.1490 0.9404
vn 0.2239 0.6892 0.6892
vn 0.0508 -0.9864 0.1562
vn 0.2781 -0.4361 0.8559
vn 0.2781 0.4361 0.8559
vn 0.0508 0.9864 0.1562
vn 0.2239 -0.6892 0.6892
vn 0.3056 0.1490 0.9404
vn -0.3056 0.1490 0.9404
vn -0.1459 0.8815 0.4491
vn -0.1459 -0.8815 0.4491
vn -0.3056 -0.1490 0.9404
vn -0.2239 0.6892 0.6892
vn -0.0508 -0.9864 0.1562
vn -0.2781 -0.4361 0.8559
vn -0.2781 0.4361 0.8559
vn -0.0508 0.9864 0.1562
vn -0.2239 -0.6892 0.6892
vn -0.1329 0.9864 0.0966
vn -0.5862 -0.6892 0.4259
vn -0.8000 0.1490 0.5812
vn -0.3821 0.8815 0.2776
vn -0.3821 -0.8815 0.2776
vn -0.8000 -0.1490 0.5812
vn -0.5862 0.6892 0.4259
vn -0.1329 -0.9864 0.0966
vn -0.7280 -0.4361 0.5290
vn -0.7280 0.4361 0.5290
vn -0.8999 -0.4361 0.0000
vn -0.8999 0.4361 0.0000
vn -0.1643 0.9864 0.0000
vn -0.7246 -0.6892 0.0000
vn -0.9888 0.1490 0.0000
vn -0.4722 0.8815 -0.0000
vn -0.4722 -0.8815 -0.0000
vn -0.9888 -0.1490 0.0000
vn -0.7246 0.6892 0.0000
vn -0.1643 -0.9864 0.0000
vn -0.5862 0.6892 -0.4259
vn -0.1329 -0.9864 -0.0966
vn -0.7280 -0.4361 -0.5290
vn -0.7280 0.4361 -0.5290
vn -0.1329 0.9864 -0.0966
vn -0.5862 -0.6892 -0.4259
vn -0.8000 0.1490 -0.5812
vn -0.3821 0.8815 -0.2776
vn -0.3821 -0.8815 -0.2776
vn -0.8000 -0.1490 -0.5812
vn -0.3056 -0.1490 -0.9404
vn -0.2239 0.6892 -0.6892
vn -0.0508 -0.9864 -0.1562
vn -0.2781 -0.4361 -0.8559
vn -0.2781 0.4361 -0.8559
vn -0.0508 0.9864 -0.1562
vn -0.2239 -0.6892 -0.6892
vn -0.3056 0.1490 -0.9404
vn -0.1459 0.8815 -0.4491
vn -0.1459 -0.8815 -0.4491
usemtl None
s off
f 4//1 14//1 5//1
f 3//2 11//2 90//2
f 1//3 53//3 8//3
f 5//4 15//4 92//4
f 91//5 11//5 12//5
f 1//6 9//6 2//6
f 6//7 15//7 16//7
f 4//8 12//8 13//8
f 2//9 10//9 3//9
f 7//10 6//10 16//10
f 11//11 19//11 20//11
f 8//12 53//12 17//12
f 14//13 24//13 15//13
f 11//14 21//14 12//14
f 8//15 18//15 9//15
f 15//16 25//16 16//16
f 13//17 21//17 22//17
f 10//18 18//18 19//18
f 7//19 16//19 25//19
f 13//20 23//20 14//20
f 7//21 25//21 34//21
f 22//22 32//22 23//22
f 19//23 29//23 20//23
f 17//24 53//24 26//24
f 23//25 33//25 24//25
f 20//26 30//26 21//26
f 17//27 27//27 18//27
f 25//28 33//28 34//28
f 22//29 30//29 31//29
f 18//30 28//30 19//30
f 31//31 39//31 40//31
f 28//32 36//32 37//32
f 7//33 34//33 43//33
f 31//34 41//34 32//34
f 28//35 38//35 29//35
f 26//36 53//36 35//36
f 32//37 42//37 33//37
f 29//38 39//38 30//38
f 26//39 36//39 27//39
f 33//40 43//40 34//40
f 36//41 44//41 45//41
f 43//42 51//42 52//42
f 40//43 48//43 49//43
f 37//44 45//44 46//44
f 7//45 43//45 52//45
f 40//46 50//46 41//46
f 37//47 47//47 38//47
f 35//48 53//48 44//48
f 41//49 51//49 42//49
f 38//50 48//50 39//50
f 47//51 58//51 48//51
f 44//52 55//52 45//52
f 51//53 62//53 52//53
f 49//54 58//54 59//54
f 45//55 56//55 46//55
f 7//56 52//56 62//56
f 49//57 60//57 50//57
f 46//58 57//58 47//58
f 44//59 53//59 54//59
f 50//60 61//60 51//60
f 54//61 53//61 63//61
f 60//62 70//62 61//62
f 57//63 67//63 58//63
f 54//64 64//64 55//64
f 61//65 71//65 62//65
f 59//66 67//66 68//66
f 56//67 64//67 65//67
f 7//68 62//68 71//68
f 59//69 69//69 60//69
f 56//70 66//70 57//70
f 68//71 78//71 69//71
f 65//72 75//72 66//72
f 63//73 53//73 72//73
f 69//74 79//74 70//74
f 66//75 76//75 67//75
f 63//76 73//76 64//76
f 70//77 80//77 71//77
f 68//78 76//78 77//78
f 65//79 73//79 74//79
f 7//80 71//80 80//80
f 74//81 82//81 83//81
f 7//82 80//82 89//82
f 77//83 87//83 78//83
f 74//84 84//84 75//84
f 72//85 53//85 81//85
f 78//86 88//86 79//86
f 75//87 85//87 76//87
f 73//88 81//88 82//88
f 79//89 89//89 80//89
f 77//90 85//90 86//90
f 86//91 91//91 4//91
f 82//92 3//92 83//92
f 7//93 89//93 6//93
f 86//94 5//94 87//94
f 83//95 90//95 84//95
f 81//96 53//96 1//96
f 87//97 92//97 88//97
f 84//98 91//98 85//98
f 81//99 2//99 82//99
f 88//100 6//100 89//100
f 4//1 13//1 14//1
f 3//2 10//2 11//2
f 5//4 14//4 15//4
f 91//5 90//5 11//5
f 1//6 8//6 9//6
f 6//7 92//7 15//7
f 4//8 91//8 12//8
f 2//9 9//9 10//9
f 11//11 10//11 19//11
f 14//13 23//13 24//13
f 11//14 20//14 21//14
f 8//15 17//15 18//15
f 15//16 24//16 25//16
f 13//17 12//17 21//17
f 10//18 9//18 18//18
f 13//20 22//20 23//20
f 22//22 31//22 32//22
f 19//23 28//23 29//23
f 23//25 32//25 33//25
f 20//26 29//26 30//26
f 17//27 26//27 27//27
f 25//28 24//28 33//28
f 22//29 21//29 30//29
f 18//30 27//30 28//30
f 31//31 30//31 39//31
f 28//32 27//32 36//32
f 31//34 40//34 41//34
f 28//35 37//35 38//35
f 32//37 41//37 42//37
f 29//38 38//38 39//38
f 26//39 35//39 36//39
f 33//40 42//40 43//40
f 36//41 35//41 44//41
f 43//42 42//42 51//42
f 40//43 39//43 48//43
f 37//44 36//44 45//44
f 40//46 49//46 50//46
f 37//47 46//47 47//47
f 41//49 50//49 51//49
f 38//50 47//50 48//50
f 47//51 57//51 58//51
f 44//52 54//52 55//52
f 51//53 61//53 62//53
f 49//54 48//54 58//54
f 45//55 55//55 56//55
f 49//57 59//57 60//57
f 46//58 56//58 57//58
f 50//60 60//60 61//60
f 60//62 69//62 70//62
f 57//63 66//63 67//63
f 54//64 63//64 64//64
f 61//65 70//65 71//65
f 59//66 58//66 67//66
f 56//67 55//67 64//67
f 59//69 68//69 69//69
f 56//70 65//70 66//70
f 68//71 77//71 78//71
f 65//72 74//72 75//72
f 69//74 78//74 79//74
f 66//75 75//75 76//75
f 63//76 72//76 73//76
f 70//77 79//77 80//77
f 68//78 67//78 76//78
f 65//79 64//79 73//79
f 74//81 73//81 82//81
f 77//83 86//83 87//83
f 74//84 83//84 84//84
f 78//86 87//86 88//86
f 75//87 84//87 85//87
f 73//88 72//88 81//88
f 79//89 88//89 89//89
f 77//90 76//90 85//90
f 86//91 85//91 91//91
f 82//92 2//92 3//92
f 86//94 4//94 5//94
f 83//95 3//95 90//95
f 87//97 5//97 92//97
f 84//98 90//98 91//98
f 81//99 1//99 2//99
f 88//100 92//100 6//100
